<mxfile host="app.diagrams.net" modified="2023-03-24T16:31:00.330Z" agent="Mozilla/5.0 (X11; Linux x86_64) AppleWebKit/537.36 (KHTML, like Gecko) Chrome/111.0.0.0 Safari/537.36" etag="cE0d3MEuBVN_mkfmvifu" version="21.1.0" type="device">
  <diagram name="Страница 1" id="AiUZKS4OD5jMiDgkDY5z">
    <mxGraphModel dx="1362" dy="709" grid="1" gridSize="10" guides="1" tooltips="1" connect="1" arrows="1" fold="1" page="1" pageScale="1" pageWidth="1654" pageHeight="2336" math="0" shadow="0">
      <root>
        <mxCell id="0" />
        <mxCell id="1" parent="0" />
        <mxCell id="ARuwK9rGSnQX9T3sywEs-8" value="" style="edgeStyle=orthogonalEdgeStyle;rounded=0;orthogonalLoop=1;jettySize=auto;html=1;" edge="1" parent="1" source="ARuwK9rGSnQX9T3sywEs-1" target="ARuwK9rGSnQX9T3sywEs-7">
          <mxGeometry relative="1" as="geometry">
            <Array as="points">
              <mxPoint x="320" y="190" />
              <mxPoint x="320" y="290" />
            </Array>
          </mxGeometry>
        </mxCell>
        <mxCell id="ARuwK9rGSnQX9T3sywEs-1" value="Регистрация&lt;br&gt;/&lt;br&gt;Авторизация" style="rounded=0;whiteSpace=wrap;html=1;" vertex="1" parent="1">
          <mxGeometry x="160" y="160" width="120" height="60" as="geometry" />
        </mxCell>
        <mxCell id="ARuwK9rGSnQX9T3sywEs-2" value="" style="endArrow=classic;html=1;rounded=0;" edge="1" parent="1" target="ARuwK9rGSnQX9T3sywEs-1">
          <mxGeometry width="50" height="50" relative="1" as="geometry">
            <mxPoint x="40" y="190" as="sourcePoint" />
            <mxPoint x="720" y="340" as="targetPoint" />
          </mxGeometry>
        </mxCell>
        <mxCell id="ARuwK9rGSnQX9T3sywEs-3" value="Личные данные&lt;br&gt;пользователя" style="text;html=1;align=center;verticalAlign=middle;resizable=0;points=[];autosize=1;strokeColor=none;fillColor=none;" vertex="1" parent="1">
          <mxGeometry x="45" y="140" width="110" height="40" as="geometry" />
        </mxCell>
        <mxCell id="ARuwK9rGSnQX9T3sywEs-4" value="" style="endArrow=classic;html=1;rounded=0;entryX=0.333;entryY=-0.033;entryDx=0;entryDy=0;entryPerimeter=0;" edge="1" parent="1" target="ARuwK9rGSnQX9T3sywEs-1">
          <mxGeometry width="50" height="50" relative="1" as="geometry">
            <mxPoint x="200" y="40" as="sourcePoint" />
            <mxPoint x="50" y="130" as="targetPoint" />
          </mxGeometry>
        </mxCell>
        <mxCell id="ARuwK9rGSnQX9T3sywEs-6" value="Формы&amp;nbsp;&lt;br&gt;приложения" style="text;html=1;align=center;verticalAlign=middle;resizable=0;points=[];autosize=1;strokeColor=none;fillColor=none;" vertex="1" parent="1">
          <mxGeometry x="185" y="80" width="90" height="40" as="geometry" />
        </mxCell>
        <mxCell id="ARuwK9rGSnQX9T3sywEs-18" value="" style="edgeStyle=orthogonalEdgeStyle;rounded=0;orthogonalLoop=1;jettySize=auto;html=1;" edge="1" parent="1" source="ARuwK9rGSnQX9T3sywEs-7" target="ARuwK9rGSnQX9T3sywEs-17">
          <mxGeometry relative="1" as="geometry">
            <Array as="points">
              <mxPoint x="520" y="310" />
              <mxPoint x="520" y="470" />
            </Array>
          </mxGeometry>
        </mxCell>
        <mxCell id="ARuwK9rGSnQX9T3sywEs-24" value="" style="edgeStyle=orthogonalEdgeStyle;rounded=0;orthogonalLoop=1;jettySize=auto;html=1;" edge="1" parent="1" source="ARuwK9rGSnQX9T3sywEs-7" target="ARuwK9rGSnQX9T3sywEs-23">
          <mxGeometry relative="1" as="geometry" />
        </mxCell>
        <mxCell id="ARuwK9rGSnQX9T3sywEs-7" value="Создание поста" style="whiteSpace=wrap;html=1;rounded=0;" vertex="1" parent="1">
          <mxGeometry x="360" y="280" width="120" height="60" as="geometry" />
        </mxCell>
        <mxCell id="ARuwK9rGSnQX9T3sywEs-9" value="JWT token" style="text;html=1;align=center;verticalAlign=middle;resizable=0;points=[];autosize=1;strokeColor=none;fillColor=none;" vertex="1" parent="1">
          <mxGeometry x="310" y="210" width="80" height="30" as="geometry" />
        </mxCell>
        <mxCell id="ARuwK9rGSnQX9T3sywEs-11" value="" style="endArrow=classic;html=1;rounded=0;" edge="1" parent="1">
          <mxGeometry width="50" height="50" relative="1" as="geometry">
            <mxPoint x="50" y="330" as="sourcePoint" />
            <mxPoint x="360" y="330" as="targetPoint" />
          </mxGeometry>
        </mxCell>
        <mxCell id="ARuwK9rGSnQX9T3sywEs-12" value="Вложения" style="text;html=1;align=center;verticalAlign=middle;resizable=0;points=[];autosize=1;strokeColor=none;fillColor=none;" vertex="1" parent="1">
          <mxGeometry x="45" y="330" width="80" height="30" as="geometry" />
        </mxCell>
        <mxCell id="ARuwK9rGSnQX9T3sywEs-13" value="" style="endArrow=classic;html=1;rounded=0;" edge="1" parent="1" target="ARuwK9rGSnQX9T3sywEs-7">
          <mxGeometry width="50" height="50" relative="1" as="geometry">
            <mxPoint x="60" y="310" as="sourcePoint" />
            <mxPoint x="50" y="100" as="targetPoint" />
          </mxGeometry>
        </mxCell>
        <mxCell id="ARuwK9rGSnQX9T3sywEs-14" value="Текст пользователя" style="text;html=1;align=center;verticalAlign=middle;resizable=0;points=[];autosize=1;strokeColor=none;fillColor=none;" vertex="1" parent="1">
          <mxGeometry x="45" y="275" width="130" height="30" as="geometry" />
        </mxCell>
        <mxCell id="ARuwK9rGSnQX9T3sywEs-15" value="" style="endArrow=classic;html=1;rounded=0;entryX=0.333;entryY=-0.033;entryDx=0;entryDy=0;entryPerimeter=0;" edge="1" parent="1">
          <mxGeometry width="50" height="50" relative="1" as="geometry">
            <mxPoint x="405" y="50" as="sourcePoint" />
            <mxPoint x="405" y="278" as="targetPoint" />
          </mxGeometry>
        </mxCell>
        <mxCell id="ARuwK9rGSnQX9T3sywEs-16" value="Формы&amp;nbsp;&lt;br&gt;приложения" style="text;html=1;align=center;verticalAlign=middle;resizable=0;points=[];autosize=1;strokeColor=none;fillColor=none;" vertex="1" parent="1">
          <mxGeometry x="390" y="200" width="90" height="40" as="geometry" />
        </mxCell>
        <mxCell id="ARuwK9rGSnQX9T3sywEs-21" value="" style="edgeStyle=orthogonalEdgeStyle;rounded=0;orthogonalLoop=1;jettySize=auto;html=1;" edge="1" parent="1" source="ARuwK9rGSnQX9T3sywEs-17" target="ARuwK9rGSnQX9T3sywEs-20">
          <mxGeometry relative="1" as="geometry" />
        </mxCell>
        <mxCell id="ARuwK9rGSnQX9T3sywEs-17" value="Поделиться проектом" style="whiteSpace=wrap;html=1;rounded=0;" vertex="1" parent="1">
          <mxGeometry x="590" y="440" width="120" height="60" as="geometry" />
        </mxCell>
        <mxCell id="ARuwK9rGSnQX9T3sywEs-19" value="id поста" style="text;html=1;align=center;verticalAlign=middle;resizable=0;points=[];autosize=1;strokeColor=none;fillColor=none;" vertex="1" parent="1">
          <mxGeometry x="495" y="280" width="70" height="30" as="geometry" />
        </mxCell>
        <mxCell id="ARuwK9rGSnQX9T3sywEs-20" value="" style="shape=waypoint;sketch=0;size=6;pointerEvents=1;points=[];fillColor=default;resizable=0;rotatable=0;perimeter=centerPerimeter;snapToPoint=1;rounded=0;" vertex="1" parent="1">
          <mxGeometry x="840" y="460" width="20" height="20" as="geometry" />
        </mxCell>
        <mxCell id="ARuwK9rGSnQX9T3sywEs-22" value="Сообщение в чате&lt;br&gt;другого пользователя" style="text;html=1;align=center;verticalAlign=middle;resizable=0;points=[];autosize=1;strokeColor=none;fillColor=none;" vertex="1" parent="1">
          <mxGeometry x="720" y="420" width="140" height="40" as="geometry" />
        </mxCell>
        <mxCell id="ARuwK9rGSnQX9T3sywEs-23" value="" style="shape=waypoint;sketch=0;size=6;pointerEvents=1;points=[];fillColor=default;resizable=0;rotatable=0;perimeter=centerPerimeter;snapToPoint=1;rounded=0;" vertex="1" parent="1">
          <mxGeometry x="840" y="300" width="20" height="20" as="geometry" />
        </mxCell>
        <mxCell id="ARuwK9rGSnQX9T3sywEs-27" value="" style="endArrow=classic;html=1;rounded=0;exitX=1;exitY=0.5;exitDx=0;exitDy=0;" edge="1" parent="1" source="ARuwK9rGSnQX9T3sywEs-1">
          <mxGeometry width="50" height="50" relative="1" as="geometry">
            <mxPoint x="420" y="300" as="sourcePoint" />
            <mxPoint x="380" y="190" as="targetPoint" />
          </mxGeometry>
        </mxCell>
        <mxCell id="ARuwK9rGSnQX9T3sywEs-28" value="" style="endArrow=classic;html=1;rounded=0;" edge="1" parent="1" target="ARuwK9rGSnQX9T3sywEs-1">
          <mxGeometry width="50" height="50" relative="1" as="geometry">
            <mxPoint x="220" y="560" as="sourcePoint" />
            <mxPoint x="470" y="250" as="targetPoint" />
          </mxGeometry>
        </mxCell>
        <mxCell id="ARuwK9rGSnQX9T3sywEs-29" value="" style="endArrow=classic;html=1;rounded=0;edgeStyle=orthogonalEdgeStyle;" edge="1" parent="1">
          <mxGeometry width="50" height="50" relative="1" as="geometry">
            <mxPoint x="220" y="540" as="sourcePoint" />
            <mxPoint x="419.5" y="340" as="targetPoint" />
          </mxGeometry>
        </mxCell>
        <mxCell id="ARuwK9rGSnQX9T3sywEs-30" value="" style="endArrow=classic;html=1;rounded=0;edgeStyle=orthogonalEdgeStyle;entryX=0.5;entryY=1;entryDx=0;entryDy=0;" edge="1" parent="1" target="ARuwK9rGSnQX9T3sywEs-17">
          <mxGeometry width="50" height="50" relative="1" as="geometry">
            <mxPoint x="220" y="540" as="sourcePoint" />
            <mxPoint x="640" y="540" as="targetPoint" />
          </mxGeometry>
        </mxCell>
        <mxCell id="ARuwK9rGSnQX9T3sywEs-31" value="http&lt;br&gt;соединение" style="text;html=1;align=center;verticalAlign=middle;resizable=0;points=[];autosize=1;strokeColor=none;fillColor=none;" vertex="1" parent="1">
          <mxGeometry x="195" y="490" width="90" height="40" as="geometry" />
        </mxCell>
      </root>
    </mxGraphModel>
  </diagram>
</mxfile>
